# xmcd
#
# Track frame offsets:
#	150
#	18887
#	39042
#	61682
#	79282
#	98570
#	121815
#	142372
#	161197
#	179597
#	198532
#	219800
#	241285
#	264460
#
# Disc length: 3839
#
# Revision: 1
# Processed by: cddbd v1.5.1PL0 Copyright (c) Steve Scherf et al.
# Submitted via: CDex 1.51
# Normalized: r0:TRMNUM
#
DISCID=ba0efd0e
DTITLE=Various Artist - 元気が出るCD
DYEAR=1991
DGENRE=Japanese Pop
TTITLE0=浪漫飛行/米米CLUB
TTITLE1=LOVE IS CASH/REBECCA
TTITLE2=DIAMONDS/プリンセス･プリンセス
TTITLE3=ビーチ タイム/TUBE
TTITLE4=がんばれブロークンハート/谷村有美
TTITLE5=sure dance/米米CLUB
TTITLE6=FRIENDS/REBECCA
TTITLE7=OH YEAH！/プリンセス･プリンセス
TTITLE8=シーズン・イン・ザ・サン/TUBE
TTITLE9=生まれたての朝/谷村有美
TTITLE10=RASPBERRY DREAM/REBECCA
TTITLE11=あー夏休み/TUBE
TTITLE12=ジュリアン/プリンセス・プリンセス
TTITLE13=TIME STOP/米米CULB
EXTD=YEAR: 1991
EXTT0=
EXTT1=
EXTT2=
EXTT3=
EXTT4=
EXTT5=
EXTT6=
EXTT7=
EXTT8=
EXTT9=
EXTT10=
EXTT11=
EXTT12=
EXTT13=
PLAYORDER=
